<svg xmlns="http://www.w3.org/2000/svg" height="512pt" version="1.1" viewBox="0 -18 512.00002 512" width="512pt">
<g id="surface1">
<path d="M 504.394531 162.957031 C 508.597656 162.957031 512 159.554688 512 155.355469 L 512 141.636719 C 512 107.550781 484.269531 79.824219 450.183594 79.824219 L 441.859375 79.824219 C 420.917969 79.824219 402.429688 65.710938 396.90625 45.507812 C 389.578125 18.714844 365.058594 0 337.277344 0 L 174.71875 0 C 148.921875 0 125.941406 16.148438 116.925781 39.910156 L 55.6875 39.910156 C 40.078125 39.910156 27.378906 52.609375 27.378906 68.222656 L 27.378906 90.328125 C 10.875 101.441406 0 120.292969 0 141.636719 L 0 415.167969 C 0 449.253906 27.730469 476.984375 61.816406 476.984375 L 450.183594 476.984375 C 484.269531 476.984375 512 449.253906 512 415.167969 L 512 185.769531 C 512 181.570312 508.597656 178.167969 504.394531 178.167969 C 500.195312 178.167969 496.792969 181.570312 496.792969 185.769531 L 496.792969 415.167969 C 496.792969 440.867188 475.882812 461.773438 450.183594 461.773438 L 61.816406 461.773438 C 36.117188 461.773438 15.207031 440.867188 15.207031 415.167969 L 15.207031 141.636719 C 15.207031 115.9375 36.117188 95.03125 61.816406 95.03125 L 70.136719 95.03125 C 97.914062 95.03125 122.433594 76.316406 129.765625 49.519531 C 135.289062 29.316406 153.777344 15.207031 174.722656 15.207031 L 337.28125 15.207031 C 358.226562 15.207031 376.710938 29.316406 382.238281 49.519531 C 389.5625 76.316406 414.082031 95.03125 441.859375 95.03125 L 450.183594 95.03125 C 475.882812 95.03125 496.792969 115.9375 496.792969 141.636719 L 496.792969 155.355469 C 496.792969 159.554688 500.195312 162.957031 504.394531 162.957031 Z M 70.136719 79.824219 L 61.816406 79.824219 C 55.101562 79.824219 48.640625 80.914062 42.585938 82.902344 L 42.585938 68.222656 C 42.585938 60.996094 48.464844 55.117188 55.6875 55.117188 L 111.261719 55.117188 C 103.289062 70.042969 87.570312 79.824219 70.136719 79.824219 Z M 70.136719 79.824219 " style=" stroke:none;fill-rule:nonzero;fill:rgb(0%,0%,0%);fill-opacity:1;" />
<path d="M 90.234375 265.867188 C 90.234375 357.269531 164.597656 431.632812 256 431.632812 C 347.402344 431.632812 421.765625 357.269531 421.765625 265.867188 C 421.765625 174.460938 347.402344 100.097656 256 100.097656 C 164.597656 100.097656 90.234375 174.460938 90.234375 265.867188 Z M 256 115.308594 C 339.019531 115.308594 406.558594 182.847656 406.558594 265.867188 C 406.558594 348.882812 339.019531 416.425781 256 416.425781 C 172.980469 416.425781 105.441406 348.882812 105.441406 265.867188 C 105.441406 182.847656 172.980469 115.308594 256 115.308594 Z M 256 115.308594 " style=" stroke:none;fill-rule:nonzero;fill:rgb(0%,0%,0%);fill-opacity:1;" />
<path d="M 153.4375 306.691406 C 154.992188 310.59375 159.417969 312.492188 163.316406 310.941406 C 167.21875 309.386719 169.121094 304.964844 167.566406 301.0625 C 163.109375 289.867188 160.847656 278.027344 160.847656 265.867188 C 160.847656 213.398438 203.535156 170.714844 256 170.714844 C 308.464844 170.714844 351.152344 213.398438 351.152344 265.867188 C 351.152344 318.332031 308.464844 361.019531 256 361.019531 C 229.492188 361.019531 203.976562 349.828125 186.003906 330.320312 C 183.15625 327.234375 178.347656 327.035156 175.257812 329.882812 C 172.171875 332.726562 171.972656 337.539062 174.820312 340.628906 C 195.664062 363.25 225.253906 376.226562 256 376.226562 C 316.851562 376.226562 366.359375 326.71875 366.359375 265.867188 C 366.359375 205.011719 316.851562 155.507812 256 155.507812 C 195.148438 155.507812 145.640625 205.011719 145.640625 265.867188 C 145.640625 279.964844 148.265625 293.699219 153.4375 306.691406 Z M 153.4375 306.691406 " style=" stroke:none;fill-rule:nonzero;fill:rgb(0%,0%,0%);fill-opacity:1;" />
<path d="M 290.359375 265.867188 C 290.359375 246.917969 274.945312 231.503906 256 231.503906 C 237.054688 231.503906 221.640625 246.917969 221.640625 265.867188 C 221.640625 284.8125 237.054688 300.226562 256 300.226562 C 274.945312 300.226562 290.359375 284.8125 290.359375 265.867188 Z M 236.847656 265.867188 C 236.847656 255.304688 245.441406 246.714844 256 246.714844 C 266.558594 246.714844 275.152344 255.304688 275.152344 265.867188 C 275.152344 276.425781 266.558594 285.019531 256 285.019531 C 245.441406 285.019531 236.847656 276.425781 236.847656 265.867188 Z M 236.847656 265.867188 " style=" stroke:none;fill-rule:nonzero;fill:rgb(0%,0%,0%);fill-opacity:1;" />
<path d="M 428.359375 434.671875 C 447.644531 434.671875 463.335938 418.980469 463.335938 399.695312 C 463.335938 380.410156 447.644531 364.71875 428.359375 364.71875 C 409.074219 364.71875 393.382812 380.410156 393.382812 399.695312 C 393.382812 418.980469 409.070312 434.671875 428.359375 434.671875 Z M 428.359375 379.925781 C 439.261719 379.925781 448.128906 388.792969 448.128906 399.695312 C 448.128906 410.597656 439.261719 419.464844 428.359375 419.464844 C 417.457031 419.464844 408.589844 410.597656 408.589844 399.695312 C 408.589844 388.792969 417.457031 379.925781 428.359375 379.925781 Z M 428.359375 379.925781 " style=" stroke:none;fill-rule:nonzero;fill:rgb(0%,0%,0%);fill-opacity:1;" />
<path d="M 322.914062 82.863281 C 335.492188 82.863281 345.726562 72.628906 345.726562 60.050781 C 345.726562 47.472656 335.492188 37.238281 322.914062 37.238281 L 189.085938 37.238281 C 176.507812 37.238281 166.273438 47.472656 166.273438 60.050781 C 166.273438 72.628906 176.507812 82.863281 189.085938 82.863281 Z M 181.480469 60.050781 C 181.480469 55.859375 184.890625 52.449219 189.085938 52.449219 L 322.914062 52.449219 C 327.109375 52.449219 330.519531 55.859375 330.519531 60.050781 C 330.519531 64.246094 327.109375 67.65625 322.914062 67.65625 L 189.085938 67.65625 C 184.890625 67.65625 181.480469 64.246094 181.480469 60.050781 Z M 181.480469 60.050781 " style=" stroke:none;fill-rule:nonzero;fill:rgb(0%,0%,0%);fill-opacity:1;" />
</g>
</svg>